# xmcd
#
# Track frame offsets:
#	180
#	18280
#	31893
#	44136
#	65405
#	83672
#	96230
#	107778
#	125938
#	140884
#	160064
#	173281
#	190534
#	208378
#	228712
#	244276
#	261292
#	283496
#
# Disc length: 4002 seconds
#
# Revision: 1
# Processed by: cddbd v1.5.1PL2 Copyright (c) Steve Scherf et al.
# Submitted via: EasyCDDAExtractor 9.0.0.1
#
DISCID=110fa012
DTITLE=Tom Morrel and The Time-Warp Tophans - How The West Was Swung, Vol. 6 (Sm
DTITLE=oke A Little Of This!)
DYEAR=1900
DGENRE=Country
TTITLE0=River Road Two Step
TTITLE1=Reckon I'm A Texan Till I Die
TTITLE2=End Of The Line
TTITLE3=I Gotta Have My Baby Back
TTITLE4=Tater Pie
TTITLE5=Eating Right Out Of Your Hand
TTITLE6=Sioux City Sue
TTITLE7=Bandera Waltz
TTITLE8=Roly Poly
TTITLE9=You Don't Love Me But, I'll Always Care/King Without A Queen
TTITLE10=Boot Heel Drag
TTITLE11=Don't Fence Me In/Hills Of Old Wyoming
TTITLE12=Still A Lot Of Love In San Antone
TTITLE13=Night Riders Lament
TTITLE14=Sugar Moon
TTITLE15=Let Me Talk To You
TTITLE16=Adios Maraquita Linda/Home In San Antone
TTITLE17=Empty Saddles
EXTD=
EXTT0=
EXTT1=
EXTT2=
EXTT3=
EXTT4=
EXTT5=
EXTT6=
EXTT7=
EXTT8=
EXTT9=
EXTT10=
EXTT11=
EXTT12=
EXTT13=
EXTT14=
EXTT15=
EXTT16=
EXTT17=
PLAYORDER=
